<svg width="1458" height="1920" viewBox="0 0 1458 1920" fill="none" xmlns="http://www.w3.org/2000/svg">
<path d="M21.4412 1876.36L0 1920L42.8823 1898.51L85.7647 1920L128.647 1898.51L171.529 1920L214.412 1898.51L257.294 1920L300.176 1898.51L343.059 1920L385.941 1898.51L428.823 1920L471.706 1898.51L514.588 1920L557.471 1898.51L600.353 1920L643.235 1898.51L686.118 1920L729 1898.51L771.882 1920L814.765 1898.51L857.647 1920L900.529 1898.51L943.412 1920L986.294 1898.51L1029.18 1920L1072.06 1898.51L1114.94 1920L1157.82 1898.51L1200.71 1920L1243.59 1898.51L1286.47 1920L1329.35 1898.51L1372.24 1920L1415.12 1898.51L1458 1920L1436.56 1876.36L1458 1832.73L1436.56 1789.09L1458 1745.45L1436.56 1701.82L1458 1658.18L1436.56 1614.55L1458 1570.91L1436.56 1527.27L1458 1483.64L1436.56 1440L1458 1396.36L1436.56 1352.73L1458 1309.09L1436.56 1265.45L1458 1221.82L1436.56 1178.18L1458 1134.55L1436.56 1090.91L1458 1047.27L1436.56 1003.64L1458 960L1436.56 916.364L1458 872.727L1436.56 829.091L1458 785.455L1436.56 741.818L1458 698.182L1436.56 654.545L1458 610.909L1436.56 567.273L1458 523.636L1436.56 480L1458 436.364L1436.56 392.727L1458 349.091L1436.56 305.454L1458 261.818L1436.56 218.182L1458 174.545L1436.56 130.909L1458 87.2727L1436.56 43.6364L1458 -2.69605e-06L1415.12 21.4924L1372.24 1.05285e-06L1329.35 21.4924L1286.47 4.80174e-06L1243.59 21.4924L1200.71 8.55064e-06L1157.82 21.4924L1114.94 1.22995e-05L1072.06 21.4924L1029.18 1.60484e-05L986.294 21.4924L943.412 1.97973e-05L900.529 21.4925L857.647 2.35462e-05L814.765 21.4925L771.882 2.72951e-05L729 21.4925L686.117 3.1044e-05L643.235 21.4925L600.353 3.47929e-05L557.47 21.4925L514.588 3.85418e-05L471.706 21.4925L428.823 4.22907e-05L385.941 21.4925L343.059 4.60396e-05L300.176 21.4925L257.294 4.97885e-05L214.412 21.4925L171.529 5.35374e-05L128.647 21.4925L85.7646 5.72863e-05L42.8823 21.4925L-8.39259e-05 6.10352e-05L21.4411 43.6364L-8.01111e-05 87.2728L21.4411 130.909L-7.62962e-05 174.545L21.4411 218.182L-7.24814e-05 261.818L21.4411 305.455L-6.86666e-05 349.091L21.4411 392.727L-6.48518e-05 436.364L21.4411 480L-6.1037e-05 523.636L21.4411 567.273L-5.72222e-05 610.909L21.4411 654.545L-5.34074e-05 698.182L21.4411 741.818L-4.95926e-05 785.455L21.4411 829.091L-4.57778e-05 872.727L21.4411 916.364L-4.19629e-05 960L21.4411 1003.64L-3.81481e-05 1047.27L21.4411 1090.91L-3.43333e-05 1134.55L21.4411 1178.18L-3.05185e-05 1221.82L21.4411 1265.45L-2.67037e-05 1309.09L21.4411 1352.73L-2.28889e-05 1396.36L21.4412 1440L-1.90741e-05 1483.64L21.4412 1527.27L-1.52592e-05 1570.91L21.4412 1614.55L-1.14444e-05 1658.18L21.4412 1701.82L-7.62962e-06 1745.45L21.4412 1789.09L-3.81481e-06 1832.73L21.4412 1876.36Z" fill="white"/>
</svg>
