<svg width="1940" height="1478" viewBox="0 0 1940 1478" fill="none" xmlns="http://www.w3.org/2000/svg">
<mask id="path-1-outside-1_33_294" maskUnits="userSpaceOnUse" x="-0.999757" y="7.53272e-05" width="1942" height="1479" fill="black">
<rect fill="white" x="-0.999757" y="7.53272e-05" width="1942" height="1479"/>
<path d="M1886.36 1446.56L1930 1468L1908.51 1425.12L1930 1382.24L1908.51 1339.35L1930 1296.47L1908.51 1253.59L1930 1210.71L1908.51 1167.82L1930 1124.94L1908.51 1082.06L1930 1039.18L1908.51 996.294L1930 953.412L1908.51 910.53L1930 867.647L1908.51 824.765L1930 781.883L1908.51 739L1930 696.118L1908.51 653.236L1930 610.353L1908.51 567.471L1930 524.589L1908.51 481.706L1930 438.824L1908.51 395.942L1930 353.059L1908.51 310.177L1930 267.295L1908.51 224.412L1930 181.53L1908.51 138.647L1930 95.7651L1908.51 52.8828L1930 10.0004L1886.36 31.4415L1842.73 10.0004L1799.09 31.4415L1755.45 10.0004L1711.82 31.4415L1668.18 10.0003L1624.55 31.4415L1580.91 10.0003L1537.27 31.4415L1493.64 10.0003L1450 31.4415L1406.36 10.0003L1362.73 31.4415L1319.09 10.0003L1275.45 31.4415L1231.82 10.0003L1188.18 31.4415L1144.55 10.0003L1100.91 31.4415L1057.27 10.0003L1013.64 31.4414L970 10.0003L926.364 31.4414L882.728 10.0003L839.091 31.4414L795.455 10.0003L751.818 31.4414L708.182 10.0003L664.546 31.4414L620.909 10.0003L577.273 31.4414L533.637 10.0002L490 31.4414L446.364 10.0002L402.728 31.4414L359.091 10.0002L315.455 31.4414L271.818 10.0002L228.182 31.4414L184.546 10.0002L140.909 31.4414L97.2731 10.0002L53.6367 31.4414L10.0004 10.0002L31.4928 52.8826L10.0004 95.765L31.4928 138.647L10.0004 181.53L31.4928 224.412L10.0003 267.294L31.4928 310.177L10.0003 353.059L31.4928 395.941L10.0003 438.824L31.4928 481.706L10.0003 524.588L31.4928 567.471L10.0003 610.353L31.4927 653.235L10.0003 696.118L31.4927 739L10.0003 781.883L31.4927 824.765L10.0003 867.647L31.4927 910.53L10.0003 953.412L31.4927 996.294L10.0003 1039.18L31.4927 1082.06L10.0003 1124.94L31.4927 1167.82L10.0003 1210.71L31.4927 1253.59L10.0003 1296.47L31.4927 1339.35L10.0003 1382.24L31.4927 1425.12L10.0002 1468L53.6366 1446.56L97.2729 1468L140.909 1446.56L184.546 1468L228.182 1446.56L271.818 1468L315.455 1446.56L359.091 1468L402.727 1446.56L446.364 1468L490 1446.56L533.637 1468L577.273 1446.56L620.909 1468L664.546 1446.56L708.182 1468L751.818 1446.56L795.455 1468L839.091 1446.56L882.727 1468L926.364 1446.56L970 1468L1013.64 1446.56L1057.27 1468L1100.91 1446.56L1144.55 1468L1188.18 1446.56L1231.82 1468L1275.45 1446.56L1319.09 1468L1362.73 1446.56L1406.36 1468L1450 1446.56L1493.64 1468L1537.27 1446.56L1580.91 1468L1624.55 1446.56L1668.18 1468L1711.82 1446.56L1755.45 1468L1799.09 1446.56L1842.73 1468L1886.36 1446.56Z"/>
</mask>
<path d="M1886.36 1446.56L1930 1468L1908.51 1425.12L1930 1382.24L1908.51 1339.35L1930 1296.47L1908.51 1253.59L1930 1210.71L1908.51 1167.82L1930 1124.94L1908.51 1082.06L1930 1039.18L1908.51 996.294L1930 953.412L1908.51 910.53L1930 867.647L1908.51 824.765L1930 781.883L1908.51 739L1930 696.118L1908.51 653.236L1930 610.353L1908.51 567.471L1930 524.589L1908.51 481.706L1930 438.824L1908.51 395.942L1930 353.059L1908.51 310.177L1930 267.295L1908.51 224.412L1930 181.53L1908.51 138.647L1930 95.7651L1908.51 52.8828L1930 10.0004L1886.36 31.4415L1842.73 10.0004L1799.09 31.4415L1755.45 10.0004L1711.82 31.4415L1668.18 10.0003L1624.55 31.4415L1580.91 10.0003L1537.27 31.4415L1493.64 10.0003L1450 31.4415L1406.36 10.0003L1362.73 31.4415L1319.09 10.0003L1275.45 31.4415L1231.82 10.0003L1188.18 31.4415L1144.55 10.0003L1100.91 31.4415L1057.27 10.0003L1013.64 31.4414L970 10.0003L926.364 31.4414L882.728 10.0003L839.091 31.4414L795.455 10.0003L751.818 31.4414L708.182 10.0003L664.546 31.4414L620.909 10.0003L577.273 31.4414L533.637 10.0002L490 31.4414L446.364 10.0002L402.728 31.4414L359.091 10.0002L315.455 31.4414L271.818 10.0002L228.182 31.4414L184.546 10.0002L140.909 31.4414L97.2731 10.0002L53.6367 31.4414L10.0004 10.0002L31.4928 52.8826L10.0004 95.765L31.4928 138.647L10.0004 181.53L31.4928 224.412L10.0003 267.294L31.4928 310.177L10.0003 353.059L31.4928 395.941L10.0003 438.824L31.4928 481.706L10.0003 524.588L31.4928 567.471L10.0003 610.353L31.4927 653.235L10.0003 696.118L31.4927 739L10.0003 781.883L31.4927 824.765L10.0003 867.647L31.4927 910.53L10.0003 953.412L31.4927 996.294L10.0003 1039.18L31.4927 1082.06L10.0003 1124.94L31.4927 1167.82L10.0003 1210.71L31.4927 1253.59L10.0003 1296.47L31.4927 1339.35L10.0003 1382.24L31.4927 1425.12L10.0002 1468L53.6366 1446.56L97.2729 1468L140.909 1446.56L184.546 1468L228.182 1446.56L271.818 1468L315.455 1446.56L359.091 1468L402.727 1446.56L446.364 1468L490 1446.56L533.637 1468L577.273 1446.56L620.909 1468L664.546 1446.56L708.182 1468L751.818 1446.56L795.455 1468L839.091 1446.56L882.727 1468L926.364 1446.56L970 1468L1013.64 1446.56L1057.27 1468L1100.91 1446.56L1144.55 1468L1188.18 1446.56L1231.82 1468L1275.45 1446.56L1319.09 1468L1362.73 1446.56L1406.36 1468L1450 1446.56L1493.64 1468L1537.27 1446.56L1580.91 1468L1624.55 1446.56L1668.18 1468L1711.82 1446.56L1755.45 1468L1799.09 1446.56L1842.73 1468L1886.36 1446.56Z" stroke="white" stroke-width="20" stroke-linecap="round" stroke-linejoin="round" mask="url(#path-1-outside-1_33_294)"/>
</svg>
