<svg width="1820" height="1733" viewBox="0 0 1820 1733" fill="none" xmlns="http://www.w3.org/2000/svg">
<path fill-rule="evenodd" clip-rule="evenodd" d="M0 1.73193H65.0258L66.0362 0C66.7579 35.2915 95.4818 63.6545 130.918 63.6545C166.353 63.6545 195.077 35.2915 195.799 0H260.753C261.474 35.2915 290.198 63.6545 325.634 63.6545C361.07 63.6545 389.794 35.2915 390.516 0H455.469C456.191 35.2915 484.915 63.6545 520.351 63.6545C555.786 63.6545 584.51 35.2915 585.232 0H650.186C650.907 35.2915 679.631 63.6545 715.067 63.6545C750.503 63.6545 779.227 35.2915 779.948 0H844.902C845.624 35.2915 874.348 63.6545 909.784 63.6545C945.219 63.6545 973.943 35.2915 974.665 0H1039.62C1040.34 35.2915 1069.06 63.6545 1104.5 63.6545C1139.94 63.6545 1168.66 35.2915 1169.38 0H1234.33C1235.06 35.2915 1263.78 63.6545 1299.22 63.6545C1334.65 63.6545 1363.38 35.2915 1364.1 0H1429.05C1429.77 35.2915 1458.5 63.6545 1493.93 63.6545C1529.37 63.6545 1558.09 35.2915 1558.81 0H1623.77V1.29907C1623.77 37.1679 1652.85 66.2527 1688.72 66.2527C1724.59 66.2527 1753.68 37.1679 1753.68 1.29907V0H1820V60.0461C1784.71 60.7678 1756.35 89.4917 1756.35 124.927C1756.35 160.363 1784.71 189.087 1820 189.809V244.514H1818.7C1782.83 244.514 1753.75 273.599 1753.75 309.468C1753.75 345.337 1782.83 374.422 1818.7 374.422H1820V429.126H1818.7C1782.83 429.126 1753.75 458.211 1753.75 494.08C1753.75 529.949 1782.83 559.034 1818.7 559.034H1820V613.739H1818.7C1782.83 613.739 1753.75 642.824 1753.75 678.693C1753.75 714.562 1782.83 743.647 1818.7 743.647H1820V798.352H1818.7C1782.83 798.352 1753.75 827.437 1753.75 863.306C1753.75 899.175 1782.83 928.259 1818.7 928.259H1820V982.965H1818.7C1782.83 982.965 1753.75 1012.05 1753.75 1047.92C1753.75 1083.79 1782.83 1112.87 1818.7 1112.87H1820V1167.58H1818.7C1782.83 1167.58 1753.75 1196.66 1753.75 1232.53C1753.75 1268.4 1782.83 1297.48 1818.7 1297.48H1820V1352.19H1818.7C1782.83 1352.19 1753.75 1381.27 1753.75 1417.14C1753.75 1453.01 1782.83 1482.1 1818.7 1482.1H1820V1536.8H1818.7C1782.83 1536.8 1753.75 1565.89 1753.75 1601.76H1688.79V131.639H129.907V1601.76L64.9536 1602.41C64.9536 1566.54 35.8688 1537.45 0 1537.45V1482.89C35.8688 1482.89 64.9536 1453.81 64.9536 1417.94C64.9536 1382.07 35.8688 1352.98 0 1352.98V1298.42C35.8688 1298.42 64.9536 1269.34 64.9536 1233.47C64.9536 1197.6 35.8688 1168.52 0 1168.52V1113.95C35.8688 1113.95 64.9536 1084.87 64.9536 1049C64.9536 1013.13 35.8688 984.047 0 984.047V929.486C35.8688 929.486 64.9536 900.401 64.9536 864.532C64.9536 828.664 35.8688 799.579 0 799.579V745.018C35.8688 745.018 64.9536 715.933 64.9536 680.064C64.9536 644.195 35.8688 615.111 0 615.111V560.55C35.8688 560.55 64.9536 531.465 64.9536 495.596C64.9536 459.727 35.8688 430.642 0 430.642V376.081C35.8688 376.081 64.9536 346.997 64.9536 311.128C64.9536 275.259 35.8688 246.174 0 246.174V191.469C0.866048 191.541 1.7321 191.613 2.59815 191.613C38.467 191.613 67.5518 162.528 67.5518 126.659C67.5518 90.7906 38.467 61.7058 2.59815 61.7058C2.16512 61.7058 1.7321 61.7419 1.29907 61.7781C0.866049 61.8142 0.433024 61.8503 0 61.8503V1.73193Z" fill="white"/>
<path fill-rule="evenodd" clip-rule="evenodd" d="M1753.75 1602.14L1688.79 1602H129.907L64.9536 1602.22C64.9536 1638.09 35.8688 1667.17 0 1667.17V1732.12H65.0258V1730.82C65.0258 1694.96 94.1105 1665.87 129.979 1665.87C165.848 1665.87 194.933 1694.96 194.933 1730.82V1732.12H259.887V1730.82C259.887 1694.96 288.971 1665.87 324.84 1665.87C360.709 1665.87 389.794 1694.96 389.794 1730.82V1732.12H454.747V1730.82C454.747 1694.96 483.832 1665.87 519.701 1665.87C555.57 1665.87 584.655 1694.96 584.655 1730.82V1732.12H649.608V1730.82C649.608 1694.96 678.693 1665.87 714.562 1665.87C750.431 1665.87 779.515 1694.96 779.515 1730.82V1732.12H844.469V1730.82C844.469 1694.96 873.554 1665.87 909.422 1665.87C945.291 1665.87 974.376 1694.96 974.376 1730.82V1732.12H1039.33V1730.82C1039.33 1694.96 1068.41 1665.87 1104.28 1665.87C1140.15 1665.87 1169.24 1694.96 1169.24 1730.82V1732.12H1234.19V1730.82C1234.19 1694.96 1263.28 1665.87 1299.14 1665.87C1335.01 1665.87 1364.1 1694.96 1364.1 1730.82V1732.12H1429.05V1730.82C1429.05 1694.96 1458.14 1665.87 1494 1665.87C1529.87 1665.87 1558.96 1694.96 1558.96 1730.82V1732.12H1623.91C1624.63 1696.83 1653.36 1668.47 1688.79 1668.47C1724.23 1668.47 1752.95 1696.83 1753.67 1732.12H1820V1667.1H1818.7C1782.83 1667.1 1753.75 1638.01 1753.75 1602.14Z" fill="white"/>
<path d="M121 128H1700V1605H121V128Z" fill="white"/>
</svg>
