<svg width="1920" height="1458" viewBox="0 0 1920 1458" fill="none" xmlns="http://www.w3.org/2000/svg">
<path d="M1876.36 1436.56L1920 1458L1898.51 1415.12L1920 1372.24L1898.51 1329.35L1920 1286.47L1898.51 1243.59L1920 1200.71L1898.51 1157.82L1920 1114.94L1898.51 1072.06L1920 1029.18L1898.51 986.294L1920 943.412L1898.51 900.529L1920 857.647L1898.51 814.765L1920 771.882L1898.51 729L1920 686.118L1898.51 643.235L1920 600.353L1898.51 557.471L1920 514.588L1898.51 471.706L1920 428.824L1898.51 385.941L1920 343.059L1898.51 300.177L1920 257.294L1898.51 214.412L1920 171.53L1898.51 128.647L1920 85.7649L1898.51 42.8826L1920 0.00012207L1876.36 21.4413L1832.73 0.000114441L1789.09 21.4413L1745.45 0.000106811L1701.82 21.4413L1658.18 9.91814e-05L1614.55 21.4413L1570.91 9.15518e-05L1527.27 21.4412L1483.64 8.39222e-05L1440 21.4412L1396.36 7.62926e-05L1352.73 21.4412L1309.09 6.86629e-05L1265.45 21.4412L1221.82 6.10333e-05L1178.18 21.4412L1134.55 5.34037e-05L1090.91 21.4412L1047.27 4.57741e-05L1003.64 21.4412L960 3.81444e-05L916.364 21.4412L872.727 3.05148e-05L829.091 21.4412L785.455 2.28852e-05L741.818 21.4412L698.182 1.52556e-05L654.546 21.4412L610.909 7.62595e-06L567.273 21.4412L523.636 -3.67459e-09L480 21.4412L436.364 -7.63331e-06L392.727 21.4412L349.091 -1.52629e-05L305.455 21.4411L261.818 -2.28926e-05L218.182 21.4411L174.546 -3.05222e-05L130.909 21.4411L87.2728 -3.81518e-05L43.6365 21.4411L0.000127462 -4.57814e-05L21.4926 42.8824L0.000119965 85.7647L21.4925 128.647L0.000112467 171.529L21.4925 214.412L0.000104969 257.294L21.4925 300.176L9.74712e-05 343.059L21.4925 385.941L8.99735e-05 428.823L21.4925 471.706L8.24757e-05 514.588L21.4925 557.471L7.49779e-05 600.353L21.4925 643.235L6.74801e-05 686.118L21.4925 729L5.99823e-05 771.882L21.4925 814.765L5.24845e-05 857.647L21.4925 900.529L4.49867e-05 943.412L21.4925 986.294L3.74889e-05 1029.18L21.4925 1072.06L2.99912e-05 1114.94L21.4925 1157.82L2.24934e-05 1200.71L21.4925 1243.59L1.49956e-05 1286.47L21.4924 1329.35L7.49779e-06 1372.24L21.4924 1415.12L0 1458L43.6364 1436.56L87.2727 1458L130.909 1436.56L174.545 1458L218.182 1436.56L261.818 1458L305.454 1436.56L349.091 1458L392.727 1436.56L436.364 1458L480 1436.56L523.636 1458L567.273 1436.56L610.909 1458L654.545 1436.56L698.182 1458L741.818 1436.56L785.455 1458L829.091 1436.56L872.727 1458L916.364 1436.56L960 1458L1003.64 1436.56L1047.27 1458L1090.91 1436.56L1134.55 1458L1178.18 1436.56L1221.82 1458L1265.45 1436.56L1309.09 1458L1352.73 1436.56L1396.36 1458L1440 1436.56L1483.64 1458L1527.27 1436.56L1570.91 1458L1614.55 1436.56L1658.18 1458L1701.82 1436.56L1745.45 1458L1789.09 1436.56L1832.73 1458L1876.36 1436.56Z" fill="white"/>
</svg>
