<svg width="2471" height="1820" viewBox="0 0 2471 1820" fill="none" xmlns="http://www.w3.org/2000/svg">
<g clip-path="url(#clip0_88_285)">
<path d="M2469.27 65.0259L2469.27 0.000107935L2409.15 0.000105307C2409.15 0.866153 2409.29 1.73221 2409.29 2.59826C2409.29 38.4671 2380.21 67.5519 2344.34 67.5519C2308.47 67.5519 2279.39 38.4671 2279.39 2.59825C2279.39 1.7322 2279.46 0.866148 2279.53 9.96415e-05L2224.83 9.72502e-05C2224.83 35.8689 2195.74 64.9537 2159.87 64.9537C2124 64.9537 2094.92 35.8689 2094.92 9.15718e-05L2040.36 8.91869e-05C2040.36 35.8689 2011.27 64.9537 1975.4 64.9537C1939.54 64.9537 1910.45 35.8689 1910.45 8.35084e-05L1855.89 8.11235e-05C1855.89 35.8689 1826.81 64.9537 1790.94 64.9537C1755.07 64.9537 1725.98 35.8689 1725.98 7.54451e-05L1671.42 7.30601e-05C1671.42 35.8689 1642.34 64.9537 1606.47 64.9537C1570.6 64.9537 1541.51 35.8689 1541.51 6.73817e-05L1486.95 6.49968e-05C1486.95 35.8689 1457.87 64.9537 1422 64.9537C1386.13 64.9537 1357.05 35.8689 1357.05 5.93185e-05L1302.48 5.69332e-05C1302.48 35.8689 1273.4 64.9537 1237.53 64.9537C1201.66 64.9537 1172.58 35.8689 1172.58 5.12551e-05L1118.02 4.88702e-05C1118.02 35.8688 1088.93 64.9536 1053.06 64.9536C1017.19 64.9536 988.11 35.8688 988.11 4.31917e-05L933.55 4.08068e-05C933.55 35.8688 904.46 64.9536 868.59 64.9536C832.73 64.9536 803.64 35.8688 803.64 3.51282e-05L749.08 3.27433e-05C749.08 35.8688 719.99 64.9536 684.13 64.9536C648.26 64.9536 619.17 35.8688 619.17 2.70648e-05L564.61 2.46799e-05C564.61 35.8688 535.53 64.9536 499.66 64.9536C463.79 64.9536 434.7 35.8688 434.7 1.90013e-05L380.14 1.66164e-05C380.14 35.8688 351.06 64.9536 315.19 64.9536C279.32 64.9536 250.24 35.8688 250.24 1.09383e-05L195.67 8.553e-06C195.67 35.8688 166.59 64.9536 130.72 64.9536C94.8501 64.9536 65.7701 35.8688 65.7701 2.8749e-06L0.810181 3.54088e-08L0.810178 65.0258C1.25018 65.0258 1.68023 65.0258 2.11023 65.0258C37.9802 65.0258 67.0702 94.1105 67.0702 129.979C67.0702 165.848 37.9802 194.933 2.11022 194.933C1.68022 194.933 1.25017 194.933 0.810172 194.933L0.810169 259.887C1.25017 259.887 1.68022 259.887 2.11022 259.887C37.9802 259.887 67.0702 288.971 67.0702 324.84C67.0702 360.709 37.9802 389.794 2.11021 389.794C1.68021 389.794 1.25016 389.794 0.810164 389.794L0.810161 454.747C1.25016 454.747 1.68021 454.747 2.11021 454.747C37.9802 454.747 67.0702 483.832 67.0702 519.701C67.0702 555.57 37.9802 584.655 2.1102 584.655C1.6802 584.655 1.25016 584.655 0.810155 584.655L0.810152 649.608C1.25015 649.608 1.6802 649.608 2.1102 649.608C37.9802 649.608 67.0702 678.693 67.0702 714.562C67.0702 750.431 37.9802 779.515 2.1102 779.515C1.6802 779.515 1.25015 779.515 0.810147 779.515L0.810144 844.469C1.25014 844.469 1.68019 844.469 2.11019 844.469C37.9802 844.469 67.0702 873.554 67.0702 909.423C67.0701 945.291 37.9802 974.376 2.11019 974.376C1.68019 974.376 1.25014 974.376 0.810138 974.376L0.810135 1039.33C1.25014 1039.33 1.68018 1039.33 2.11018 1039.33C37.9802 1039.33 67.0701 1068.41 67.0701 1104.28C67.0701 1140.15 37.9802 1169.24 2.11018 1169.24C1.68018 1169.24 1.25013 1169.24 0.81013 1169.24L0.810127 1234.19C1.25013 1234.19 1.68018 1234.19 2.11018 1234.19C37.9802 1234.19 67.0701 1263.28 67.0701 1299.14C67.0701 1335.01 37.9802 1364.1 2.11017 1364.1C1.68017 1364.1 1.25012 1364.1 0.810121 1364.1L0.810118 1429.05C1.25012 1429.05 1.68017 1429.05 2.11017 1429.05C37.9802 1429.05 67.0701 1458.14 67.0701 1494.01C67.0701 1529.87 37.9802 1558.96 2.11016 1558.96C1.68016 1558.96 1.25011 1558.96 0.810113 1558.96L0.81011 1623.91C36.1101 1624.63 64.47 1653.36 64.47 1688.79C64.47 1724.23 36.1101 1752.95 0.810104 1753.68L0.810101 1820L65.8401 1820C65.8401 1819.57 65.8401 1819.13 65.8401 1818.7C65.8401 1782.83 94.9201 1753.75 130.79 1753.75C166.66 1753.75 195.75 1782.83 195.75 1818.7C195.75 1819.13 195.75 1819.57 195.75 1820L250.45 1820C250.45 1819.57 250.45 1819.13 250.45 1818.7C250.45 1782.83 279.54 1753.75 315.41 1753.75C351.27 1753.75 380.36 1782.83 380.36 1818.7C380.36 1819.13 380.36 1819.57 380.36 1820L435.07 1820C435.07 1819.57 435.07 1819.13 435.07 1818.7C435.07 1782.83 464.15 1753.75 500.02 1753.75C535.89 1753.75 564.97 1782.83 564.97 1818.7C564.97 1819.13 564.97 1819.57 564.97 1820L619.68 1820C619.68 1819.57 619.68 1819.13 619.68 1818.7C619.68 1782.83 648.76 1753.75 684.63 1753.75C720.5 1753.75 749.58 1782.83 749.58 1818.7C749.58 1819.13 749.58 1819.57 749.58 1820L804.29 1820C804.29 1819.57 804.29 1819.13 804.29 1818.7C804.29 1782.83 833.37 1753.75 869.24 1753.75C905.11 1753.75 934.2 1782.83 934.2 1818.7C934.2 1819.13 934.2 1819.57 934.2 1820L988.9 1820C988.9 1819.57 988.9 1819.13 988.9 1818.7C988.9 1782.83 1017.99 1753.75 1053.86 1753.75C1089.73 1753.75 1118.81 1782.83 1118.81 1818.7C1118.81 1819.13 1118.81 1819.57 1118.81 1820L1173.52 1820C1173.52 1819.57 1173.52 1819.13 1173.52 1818.7C1173.52 1782.83 1202.6 1753.75 1238.47 1753.75C1274.34 1753.75 1303.42 1782.83 1303.42 1818.7C1303.42 1819.13 1303.42 1819.57 1303.42 1820L1358.13 1820C1358.13 1819.57 1358.13 1819.13 1358.13 1818.7C1358.13 1782.83 1387.21 1753.75 1423.08 1753.75C1458.95 1753.75 1488.04 1782.83 1488.04 1818.7C1488.04 1819.13 1488.04 1819.57 1488.04 1820L1542.74 1820C1542.74 1819.57 1542.74 1819.13 1542.74 1818.7C1542.74 1782.83 1571.83 1753.75 1607.69 1753.75C1643.56 1753.75 1672.65 1782.83 1672.65 1818.7C1672.65 1819.13 1672.65 1819.57 1672.65 1820L1727.35 1820C1727.35 1819.57 1727.35 1819.13 1727.35 1818.7C1727.35 1782.83 1756.44 1753.75 1792.31 1753.75C1828.18 1753.75 1857.26 1782.83 1857.26 1818.7C1857.26 1819.13 1857.26 1819.57 1857.26 1820L1911.97 1820C1911.97 1819.57 1911.97 1819.13 1911.97 1818.7C1911.97 1782.83 1941.05 1753.75 1976.92 1753.75C2012.79 1753.75 2041.87 1782.83 2041.87 1818.7C2041.87 1819.13 2041.87 1819.57 2041.87 1820L2096.58 1820C2096.58 1819.57 2096.58 1819.13 2096.58 1818.7C2096.58 1782.83 2125.66 1753.75 2161.53 1753.75C2197.4 1753.75 2226.49 1782.83 2226.49 1818.7C2226.49 1819.13 2226.49 1819.57 2226.49 1820L2281.19 1820C2281.91 1784.71 2310.64 1756.35 2346.07 1756.35C2381.51 1756.35 2410.23 1784.71 2410.95 1820L2471 1820L2471 1753.68C2470.57 1753.68 2470.13 1753.68 2469.7 1753.68C2433.83 1753.68 2404.75 1724.59 2404.75 1688.72C2404.75 1652.85 2433.83 1623.77 2469.7 1623.77C2470.13 1623.77 2470.57 1623.77 2471 1623.77L2471 1558.81C2435.71 1558.09 2407.35 1529.37 2407.35 1493.93C2407.35 1458.5 2435.71 1429.77 2471 1429.05L2471 1364.1C2435.71 1363.38 2407.35 1334.65 2407.35 1299.22C2407.35 1263.78 2435.71 1235.06 2471 1234.33L2471 1169.38C2435.71 1168.66 2407.35 1139.94 2407.35 1104.5C2407.35 1069.06 2435.71 1040.34 2471 1039.62L2471 974.665C2435.71 973.943 2407.35 945.219 2407.35 909.784C2407.35 874.348 2435.71 845.624 2471 844.902L2471 779.948C2435.71 779.227 2407.35 750.503 2407.35 715.067C2407.35 679.631 2435.71 650.907 2471 650.186L2471 585.232C2435.71 584.51 2407.35 555.786 2407.35 520.351C2407.35 484.915 2435.71 456.191 2471 455.469L2471 390.516C2435.71 389.794 2407.35 361.07 2407.35 325.634C2407.35 290.198 2435.71 261.474 2471 260.753L2471 195.799C2435.71 195.077 2407.35 166.353 2407.35 130.918C2407.35 95.4819 2435.71 66.758 2471 66.0363L2469.27 65.0259ZM2339.36 1688.79L130.94 1688.79L130.94 129.907L2339.36 129.907L2339.36 1688.79Z" fill="white"/>
<path d="M2345 124L2345 1714L126 1714L126 124L2345 124Z" fill="white"/>
</g>
<defs>
<clipPath id="clip0_88_285">
<rect width="1820" height="2471" fill="white" transform="translate(2471 0.000108011) rotate(90)"/>
</clipPath>
</defs>
</svg>
