<svg width="2015" height="1919" viewBox="0 0 2015 1919" fill="none" xmlns="http://www.w3.org/2000/svg">
<g clip-path="url(#clip0_38_331)">
<path fill-rule="evenodd" clip-rule="evenodd" d="M0 1.91782H71.9928L73.1115 0C73.9105 39.0793 105.712 70.4864 144.945 70.4864C184.177 70.4864 215.978 39.0793 216.777 0H288.691C289.489 39.0793 321.291 70.4864 360.523 70.4864C399.756 70.4864 431.558 39.0793 432.357 0H504.269C505.069 39.0793 536.87 70.4864 576.103 70.4864C615.334 70.4864 647.136 39.0793 647.935 0H719.849C720.647 39.0793 752.449 70.4864 791.681 70.4864C830.914 70.4864 862.716 39.0793 863.514 0H935.427C936.227 39.0793 968.028 70.4864 1007.26 70.4864C1046.49 70.4864 1078.29 39.0793 1079.09 0H1151.01C1151.8 39.0793 1183.6 70.4864 1222.84 70.4864C1262.08 70.4864 1293.87 39.0793 1294.67 0H1366.58C1367.39 39.0793 1399.18 70.4864 1438.42 70.4864C1477.65 70.4864 1509.46 39.0793 1510.25 0H1582.16C1582.96 39.0793 1614.77 70.4864 1653.99 70.4864C1693.23 70.4864 1725.03 39.0793 1725.83 0H1797.75V1.4385C1797.75 41.1571 1829.94 73.3635 1869.65 73.3635C1909.37 73.3635 1941.57 41.1571 1941.57 1.4385V0H2015V66.4907C1975.93 67.2899 1944.53 99.0967 1944.53 138.335C1944.53 177.574 1975.93 209.381 2015 210.181V270.757H2013.56C1973.85 270.757 1941.65 302.964 1941.65 342.683C1941.65 382.401 1973.85 414.608 2013.56 414.608H2015V475.183H2013.56C1973.85 475.183 1941.65 507.39 1941.65 547.109C1941.65 586.828 1973.85 619.034 2013.56 619.034H2015V679.611H2013.56C1973.85 679.611 1941.65 711.817 1941.65 751.536C1941.65 791.255 1973.85 823.461 2013.56 823.461H2015V884.038H2013.56C1973.85 884.038 1941.65 916.244 1941.65 955.963C1941.65 995.682 1973.85 1027.89 2013.56 1027.89H2015V1088.46H2013.56C1973.85 1088.46 1941.65 1120.67 1941.65 1160.39C1941.65 1200.11 1973.85 1232.31 2013.56 1232.31H2015V1292.89H2013.56C1973.85 1292.89 1941.65 1325.1 1941.65 1364.82C1941.65 1404.54 1973.85 1436.74 2013.56 1436.74H2015V1497.32H2013.56C1973.85 1497.32 1941.65 1529.52 1941.65 1569.24C1941.65 1608.96 1973.85 1641.17 2013.56 1641.17H2015V1701.74H2013.56C1973.85 1701.74 1941.65 1733.95 1941.65 1773.67H1869.73V145.768H143.826V1773.67L71.9129 1774.39C71.9129 1734.67 39.7119 1702.46 0 1702.46V1642.05C39.7119 1642.05 71.9129 1609.84 71.9129 1570.13C71.9129 1530.41 39.7119 1498.19 0 1498.19V1437.78C39.7119 1437.78 71.9129 1405.58 71.9129 1365.86C71.9129 1326.14 39.7119 1293.94 0 1293.94V1233.51C39.7119 1233.51 71.9129 1201.31 71.9129 1161.59C71.9129 1121.87 39.7119 1089.66 0 1089.66V1029.25C39.7119 1029.25 71.9129 997.039 71.9129 957.321C71.9129 917.603 39.7119 885.396 0 885.396V824.98C39.7119 824.98 71.9129 792.773 71.9129 753.054C71.9129 713.335 39.7119 681.13 0 681.13V620.713C39.7119 620.713 71.9129 588.506 71.9129 548.787C71.9129 509.069 39.7119 476.862 0 476.862V416.445C39.7119 416.445 71.9129 384.24 71.9129 344.521C71.9129 304.802 39.7119 272.595 0 272.595V212.019C0.958839 212.099 1.91768 212.179 2.87652 212.179C42.5885 212.179 74.7895 179.972 74.7895 140.253C74.7895 100.535 42.5885 68.3286 2.87652 68.3286C2.3971 68.3286 1.91768 68.3686 1.43826 68.4086C0.95884 68.4486 0.479419 68.4886 0 68.4886V1.91782Z" fill="white"/>
<path fill-rule="evenodd" clip-rule="evenodd" d="M1941.65 1774.1L1869.73 1773.94H143.826L71.9129 1774.18C71.9129 1813.9 39.7119 1846.1 0 1846.1V1918.03H71.9928V1916.59C71.9928 1876.88 104.194 1844.67 143.905 1844.67C183.617 1844.67 215.819 1876.88 215.819 1916.59V1918.03H287.732V1916.59C287.732 1876.88 319.932 1844.67 359.644 1844.67C399.356 1844.67 431.558 1876.88 431.558 1916.59V1918.03H503.47V1916.59C503.47 1876.88 535.671 1844.67 575.383 1844.67C615.095 1844.67 647.297 1876.88 647.297 1916.59V1918.03H719.209V1916.59C719.209 1876.88 751.41 1844.67 791.122 1844.67C830.834 1844.67 863.034 1876.88 863.034 1916.59V1918.03H934.948V1916.59C934.948 1876.88 967.149 1844.67 1006.86 1844.67C1046.57 1844.67 1078.77 1876.88 1078.77 1916.59V1918.03H1150.69V1916.59C1150.69 1876.88 1182.88 1844.67 1222.6 1844.67C1262.31 1844.67 1294.52 1876.88 1294.52 1916.59V1918.03H1366.42V1916.59C1366.42 1876.88 1398.63 1844.67 1438.33 1844.67C1478.05 1844.67 1510.25 1876.88 1510.25 1916.59V1918.03H1582.16V1916.59C1582.16 1876.88 1614.37 1844.67 1654.07 1844.67C1693.78 1844.67 1725.99 1876.88 1725.99 1916.59V1918.03H1797.9C1798.7 1878.95 1830.51 1847.54 1869.73 1847.54C1908.97 1847.54 1940.77 1878.95 1941.56 1918.03H2015V1846.03H2013.56C1973.85 1846.03 1941.65 1813.81 1941.65 1774.1Z" fill="white"/>
</g>
<defs>
<clipPath id="clip0_38_331">
<rect width="2015" height="1919" fill="white"/>
</clipPath>
</defs>
</svg>
