<svg width="1820" height="2471" viewBox="0 0 1820 2471" fill="none" xmlns="http://www.w3.org/2000/svg">
<g clip-path="url(#clip0_88_285)">
<path d="M65.0258 1.73193H0V61.8503C0.866048 61.8503 1.7321 61.7058 2.59815 61.7058C38.467 61.7058 67.5518 90.7906 67.5518 126.659C67.5518 162.528 38.467 191.613 2.59815 191.613C1.7321 191.613 0.866048 191.541 0 191.469V246.174C35.8688 246.174 64.9536 275.259 64.9536 311.128C64.9536 346.997 35.8688 376.081 0 376.081V430.642C35.8688 430.642 64.9536 459.727 64.9536 495.596C64.9536 531.465 35.8688 560.55 0 560.55V615.111C35.8688 615.111 64.9536 644.195 64.9536 680.064C64.9536 715.933 35.8688 745.018 0 745.018V799.579C35.8688 799.579 64.9536 828.664 64.9536 864.532C64.9536 900.401 35.8688 929.486 0 929.486V984.047C35.8688 984.047 64.9536 1013.13 64.9536 1049C64.9536 1084.87 35.8688 1113.95 0 1113.95V1168.52C35.8688 1168.52 64.9536 1197.6 64.9536 1233.47C64.9536 1269.34 35.8688 1298.42 0 1298.42V1352.98C35.8688 1352.98 64.9536 1382.07 64.9536 1417.94C64.9536 1453.81 35.8688 1482.89 0 1482.89V1537.45C35.8688 1537.45 64.9536 1566.54 64.9536 1602.41C64.9536 1638.27 35.8688 1667.36 0 1667.36V1721.92C35.8688 1721.92 64.9536 1751.01 64.9536 1786.87C64.9536 1822.74 35.8688 1851.83 0 1851.83V1906.39C35.8688 1906.39 64.9536 1935.47 64.9536 1971.34C64.9536 2007.21 35.8688 2036.3 0 2036.3V2090.86C35.8688 2090.86 64.9536 2119.94 64.9536 2155.81C64.9536 2191.68 35.8688 2220.76 0 2220.76V2275.33C35.8688 2275.33 64.9536 2304.41 64.9536 2340.28C64.9536 2376.15 35.8688 2405.23 0 2405.23V2470.19H65.0258C65.0258 2469.75 65.0258 2469.32 65.0258 2468.89C65.0258 2433.02 94.1105 2403.93 129.979 2403.93C165.848 2403.93 194.933 2433.02 194.933 2468.89C194.933 2469.32 194.933 2469.75 194.933 2470.19H259.887C259.887 2469.75 259.887 2469.32 259.887 2468.89C259.887 2433.02 288.971 2403.93 324.84 2403.93C360.709 2403.93 389.794 2433.02 389.794 2468.89C389.794 2469.32 389.794 2469.75 389.794 2470.19H454.747C454.747 2469.75 454.747 2469.32 454.747 2468.89C454.747 2433.02 483.832 2403.93 519.701 2403.93C555.57 2403.93 584.655 2433.02 584.655 2468.89C584.655 2469.32 584.655 2469.75 584.655 2470.19H649.608C649.608 2469.75 649.608 2469.32 649.608 2468.89C649.608 2433.02 678.693 2403.93 714.562 2403.93C750.431 2403.93 779.515 2433.02 779.515 2468.89C779.515 2469.32 779.515 2469.75 779.515 2470.19H844.469C844.469 2469.75 844.469 2469.32 844.469 2468.89C844.469 2433.02 873.554 2403.93 909.423 2403.93C945.291 2403.93 974.376 2433.02 974.376 2468.89C974.376 2469.32 974.376 2469.75 974.376 2470.19H1039.33C1039.33 2469.75 1039.33 2469.32 1039.33 2468.89C1039.33 2433.02 1068.41 2403.93 1104.28 2403.93C1140.15 2403.93 1169.24 2433.02 1169.24 2468.89C1169.24 2469.32 1169.24 2469.75 1169.24 2470.19H1234.19C1234.19 2469.75 1234.19 2469.32 1234.19 2468.89C1234.19 2433.02 1263.28 2403.93 1299.14 2403.93C1335.01 2403.93 1364.1 2433.02 1364.1 2468.89C1364.1 2469.32 1364.1 2469.75 1364.1 2470.19H1429.05C1429.05 2469.75 1429.05 2469.32 1429.05 2468.89C1429.05 2433.02 1458.14 2403.93 1494.01 2403.93C1529.87 2403.93 1558.96 2433.02 1558.96 2468.89C1558.96 2469.32 1558.96 2469.75 1558.96 2470.19H1623.91C1624.63 2434.89 1653.36 2406.53 1688.79 2406.53C1724.23 2406.53 1752.95 2434.89 1753.68 2470.19H1820V2405.16C1819.57 2405.16 1819.13 2405.16 1818.7 2405.16C1782.83 2405.16 1753.75 2376.08 1753.75 2340.21C1753.75 2304.34 1782.83 2275.25 1818.7 2275.25C1819.13 2275.25 1819.57 2275.25 1820 2275.25V2220.55C1819.57 2220.55 1819.13 2220.55 1818.7 2220.55C1782.83 2220.55 1753.75 2191.46 1753.75 2155.59C1753.75 2119.73 1782.83 2090.64 1818.7 2090.64C1819.13 2090.64 1819.57 2090.64 1820 2090.64V2035.93C1819.57 2035.93 1819.13 2035.93 1818.7 2035.93C1782.83 2035.93 1753.75 2006.85 1753.75 1970.98C1753.75 1935.11 1782.83 1906.03 1818.7 1906.03C1819.13 1906.03 1819.57 1906.03 1820 1906.03V1851.32C1819.57 1851.32 1819.13 1851.32 1818.7 1851.32C1782.83 1851.32 1753.75 1822.24 1753.75 1786.37C1753.75 1750.5 1782.83 1721.42 1818.7 1721.42C1819.13 1721.42 1819.57 1721.42 1820 1721.42V1666.71C1819.57 1666.71 1819.13 1666.71 1818.7 1666.71C1782.83 1666.71 1753.75 1637.63 1753.75 1601.76C1753.75 1565.89 1782.83 1536.8 1818.7 1536.8C1819.13 1536.8 1819.57 1536.8 1820 1536.8V1482.1C1819.57 1482.1 1819.13 1482.1 1818.7 1482.1C1782.83 1482.1 1753.75 1453.01 1753.75 1417.14C1753.75 1381.27 1782.83 1352.19 1818.7 1352.19C1819.13 1352.19 1819.57 1352.19 1820 1352.19V1297.48C1819.57 1297.48 1819.13 1297.48 1818.7 1297.48C1782.83 1297.48 1753.75 1268.4 1753.75 1232.53C1753.75 1196.66 1782.83 1167.58 1818.7 1167.58C1819.13 1167.58 1819.57 1167.58 1820 1167.58V1112.87C1819.57 1112.87 1819.13 1112.87 1818.7 1112.87C1782.83 1112.87 1753.75 1083.79 1753.75 1047.92C1753.75 1012.05 1782.83 982.965 1818.7 982.965C1819.13 982.965 1819.57 982.965 1820 982.965V928.259C1819.57 928.259 1819.13 928.259 1818.7 928.259C1782.83 928.259 1753.75 899.175 1753.75 863.306C1753.75 827.437 1782.83 798.352 1818.7 798.352C1819.13 798.352 1819.57 798.352 1820 798.352V743.647C1819.57 743.647 1819.13 743.647 1818.7 743.647C1782.83 743.647 1753.75 714.562 1753.75 678.693C1753.75 642.824 1782.83 613.739 1818.7 613.739C1819.13 613.739 1819.57 613.739 1820 613.739V559.034C1819.57 559.034 1819.13 559.034 1818.7 559.034C1782.83 559.034 1753.75 529.949 1753.75 494.08C1753.75 458.211 1782.83 429.127 1818.7 429.127C1819.13 429.127 1819.57 429.127 1820 429.127V374.422C1819.57 374.422 1819.13 374.422 1818.7 374.422C1782.83 374.422 1753.75 345.337 1753.75 309.468C1753.75 273.599 1782.83 244.514 1818.7 244.514C1819.13 244.514 1819.57 244.514 1820 244.514V189.809C1784.71 189.087 1756.35 160.363 1756.35 124.927C1756.35 89.4917 1784.71 60.7678 1820 60.0461V0H1753.68C1753.68 0.433024 1753.68 0.866048 1753.68 1.29907C1753.68 37.1679 1724.59 66.2527 1688.72 66.2527C1652.85 66.2527 1623.77 37.1679 1623.77 1.29907C1623.77 0.866048 1623.77 0.433024 1623.77 0H1558.81C1558.09 35.2915 1529.37 63.6545 1493.93 63.6545C1458.5 63.6545 1429.77 35.2915 1429.05 0H1364.1C1363.38 35.2915 1334.65 63.6545 1299.22 63.6545C1263.78 63.6545 1235.06 35.2915 1234.33 0H1169.38C1168.66 35.2915 1139.94 63.6545 1104.5 63.6545C1069.06 63.6545 1040.34 35.2915 1039.62 0H974.665C973.943 35.2915 945.219 63.6545 909.784 63.6545C874.348 63.6545 845.624 35.2915 844.902 0H779.948C779.227 35.2915 750.503 63.6545 715.067 63.6545C679.631 63.6545 650.907 35.2915 650.186 0H585.232C584.51 35.2915 555.786 63.6545 520.351 63.6545C484.915 63.6545 456.191 35.2915 455.469 0H390.516C389.794 35.2915 361.07 63.6545 325.634 63.6545C290.198 63.6545 261.474 35.2915 260.753 0H195.799C195.077 35.2915 166.353 63.6545 130.918 63.6545C95.4818 63.6545 66.7579 35.2915 66.0362 0L65.0258 1.73193ZM1688.79 131.639V2340.06H129.907V131.639H1688.79Z" fill="white"/>
</g>
<defs>
<clipPath id="clip0_88_285">
<rect width="1820" height="2471" fill="white"/>
</clipPath>
</defs>
</svg>
