<svg width="1478" height="1940" viewBox="0 0 1478 1940" fill="none" xmlns="http://www.w3.org/2000/svg">
<mask id="path-1-outside-1_33_294" maskUnits="userSpaceOnUse" x="-0.999596" y="-0.999759" width="1479" height="1942" fill="black">
<rect fill="white" x="-0.999596" y="-0.999759" width="1479" height="1942"/>
<path d="M31.4417 1886.36L10.0005 1930L52.8828 1908.51L95.7652 1930L138.648 1908.51L181.53 1930L224.412 1908.51L267.295 1930L310.177 1908.51L353.059 1930L395.942 1908.51L438.824 1930L481.706 1908.51L524.589 1930L567.471 1908.51L610.353 1930L653.236 1908.51L696.118 1930L739 1908.51L781.883 1930L824.765 1908.51L867.647 1930L910.53 1908.51L953.412 1930L996.294 1908.51L1039.18 1930L1082.06 1908.51L1124.94 1930L1167.82 1908.51L1210.71 1930L1253.59 1908.51L1296.47 1930L1339.35 1908.51L1382.24 1930L1425.12 1908.51L1468 1930L1446.56 1886.36L1468 1842.73L1446.56 1799.09L1468 1755.45L1446.56 1711.82L1468 1668.18L1446.56 1624.55L1468 1580.91L1446.56 1537.27L1468 1493.64L1446.56 1450L1468 1406.36L1446.56 1362.73L1468 1319.09L1446.56 1275.45L1468 1231.82L1446.56 1188.18L1468 1144.55L1446.56 1100.91L1468 1057.27L1446.56 1013.64L1468 970L1446.56 926.364L1468 882.727L1446.56 839.091L1468 795.455L1446.56 751.818L1468 708.182L1446.56 664.546L1468 620.909L1446.56 577.273L1468 533.637L1446.56 490L1468 446.364L1446.56 402.727L1468 359.091L1446.56 315.455L1468 271.818L1446.56 228.182L1468 184.546L1446.56 140.909L1468 97.2729L1446.56 53.6366L1468 10.0002L1425.12 31.4927L1382.24 10.0002L1339.35 31.4927L1296.47 10.0002L1253.59 31.4927L1210.71 10.0003L1167.82 31.4927L1124.94 10.0003L1082.06 31.4927L1039.18 10.0003L996.294 31.4927L953.412 10.0003L910.53 31.4927L867.647 10.0003L824.765 31.4927L781.883 10.0003L739 31.4927L696.118 10.0003L653.236 31.4927L610.353 10.0003L567.471 31.4927L524.589 10.0003L481.706 31.4927L438.824 10.0003L395.942 31.4927L353.059 10.0003L310.177 31.4927L267.295 10.0003L224.412 31.4927L181.53 10.0003L138.647 31.4927L95.7651 10.0003L52.8828 31.4927L10.0004 10.0003L31.4416 53.6367L10.0004 97.273L31.4416 140.909L10.0004 184.546L31.4416 228.182L10.0004 271.818L31.4416 315.455L10.0004 359.091L31.4416 402.727L10.0004 446.364L31.4416 490L10.0004 533.637L31.4416 577.273L10.0004 620.909L31.4416 664.546L10.0004 708.182L31.4416 751.818L10.0004 795.455L31.4416 839.091L10.0004 882.727L31.4416 926.364L10.0004 970L31.4416 1013.64L10.0005 1057.27L31.4416 1100.91L10.0005 1144.55L31.4416 1188.18L10.0005 1231.82L31.4416 1275.45L10.0005 1319.09L31.4416 1362.73L10.0005 1406.36L31.4416 1450L10.0005 1493.64L31.4416 1537.27L10.0005 1580.91L31.4416 1624.55L10.0005 1668.18L31.4417 1711.82L10.0005 1755.45L31.4417 1799.09L10.0005 1842.73L31.4417 1886.36Z"/>
</mask>
<path d="M31.4417 1886.36L10.0005 1930L52.8828 1908.51L95.7652 1930L138.648 1908.51L181.53 1930L224.412 1908.51L267.295 1930L310.177 1908.51L353.059 1930L395.942 1908.51L438.824 1930L481.706 1908.51L524.589 1930L567.471 1908.51L610.353 1930L653.236 1908.51L696.118 1930L739 1908.51L781.883 1930L824.765 1908.51L867.647 1930L910.53 1908.51L953.412 1930L996.294 1908.51L1039.18 1930L1082.06 1908.51L1124.94 1930L1167.82 1908.51L1210.71 1930L1253.59 1908.51L1296.47 1930L1339.35 1908.51L1382.24 1930L1425.12 1908.51L1468 1930L1446.56 1886.36L1468 1842.73L1446.56 1799.09L1468 1755.45L1446.56 1711.82L1468 1668.18L1446.56 1624.55L1468 1580.91L1446.56 1537.27L1468 1493.64L1446.56 1450L1468 1406.36L1446.56 1362.73L1468 1319.09L1446.56 1275.45L1468 1231.82L1446.56 1188.18L1468 1144.55L1446.56 1100.91L1468 1057.27L1446.56 1013.64L1468 970L1446.56 926.364L1468 882.727L1446.56 839.091L1468 795.455L1446.56 751.818L1468 708.182L1446.56 664.546L1468 620.909L1446.56 577.273L1468 533.637L1446.56 490L1468 446.364L1446.56 402.727L1468 359.091L1446.56 315.455L1468 271.818L1446.56 228.182L1468 184.546L1446.56 140.909L1468 97.2729L1446.56 53.6366L1468 10.0002L1425.12 31.4927L1382.24 10.0002L1339.35 31.4927L1296.47 10.0002L1253.59 31.4927L1210.71 10.0003L1167.82 31.4927L1124.94 10.0003L1082.06 31.4927L1039.18 10.0003L996.294 31.4927L953.412 10.0003L910.53 31.4927L867.647 10.0003L824.765 31.4927L781.883 10.0003L739 31.4927L696.118 10.0003L653.236 31.4927L610.353 10.0003L567.471 31.4927L524.589 10.0003L481.706 31.4927L438.824 10.0003L395.942 31.4927L353.059 10.0003L310.177 31.4927L267.295 10.0003L224.412 31.4927L181.53 10.0003L138.647 31.4927L95.7651 10.0003L52.8828 31.4927L10.0004 10.0003L31.4416 53.6367L10.0004 97.273L31.4416 140.909L10.0004 184.546L31.4416 228.182L10.0004 271.818L31.4416 315.455L10.0004 359.091L31.4416 402.727L10.0004 446.364L31.4416 490L10.0004 533.637L31.4416 577.273L10.0004 620.909L31.4416 664.546L10.0004 708.182L31.4416 751.818L10.0004 795.455L31.4416 839.091L10.0004 882.727L31.4416 926.364L10.0004 970L31.4416 1013.64L10.0005 1057.27L31.4416 1100.91L10.0005 1144.55L31.4416 1188.18L10.0005 1231.82L31.4416 1275.45L10.0005 1319.09L31.4416 1362.73L10.0005 1406.36L31.4416 1450L10.0005 1493.64L31.4416 1537.27L10.0005 1580.91L31.4416 1624.55L10.0005 1668.18L31.4417 1711.82L10.0005 1755.45L31.4417 1799.09L10.0005 1842.73L31.4417 1886.36Z" stroke="white" stroke-width="20" stroke-linecap="round" stroke-linejoin="round" mask="url(#path-1-outside-1_33_294)"/>
</svg>
